<?xml version="1.0" encoding="UTF-8" standalone="no"?>
<!DOCTYPE svg PUBLIC "-//W3C//DTD SVG 1.1//EN" "http://www.w3.org/Graphics/SVG/1.1/DTD/svg11.dtd">
<svg width="100%" height="100%" viewBox="0 0 184 43" version="1.1" xmlns="http://www.w3.org/2000/svg" xmlns:xlink="http://www.w3.org/1999/xlink" xml:space="preserve" style="fill-rule:evenodd;clip-rule:evenodd;stroke-linejoin:round;stroke-miterlimit:1.41421;">
    <g id="logo" transform="matrix(1.00327,0,0,1.01328,-26.4657,-19.7317)">
        <g transform="matrix(0.59909,0,0,0.59909,-219.458,-159.916)">
            <text x="484.427px" y="355.915px" style="font-family:'AmericanTypewriter', 'American Typewriter', serif;font-size:57.425px;fill:white;">CafeHub</text>
        </g>
        <g id="hot-coffee-rounded-cup-on-a-plate-from-side-view" transform="matrix(1.64727,0,0,1.64727,44.4994,36.7695)">
            <g transform="matrix(1,0,0,1,-11,-10.5)">
                <g id="Forma-1" transform="matrix(1,0,0,1,-0.947741,-0.0112953)">
                    <path d="M18.542,19.606C18.541,20.111 18.132,20.52 17.628,20.52L14.641,20.52C14.6,20.781 14.385,20.984 14.111,20.985L7.322,20.985C7.05,20.985 6.835,20.782 6.793,20.52L3.806,20.52C3.302,20.519 2.894,20.111 2.893,19.606L18.542,19.606ZM19.632,9.049C19.632,9.574 19.62,10.077 19.6,10.569C20.306,10.491 21.377,10.501 22.139,11.117C22.532,11.437 22.992,12.049 22.944,13.156C22.834,15.682 19.893,16.403 18.065,16.438C17.226,17.636 15.961,18.535 14.052,19.072L6.596,19.072C1.778,17.717 1.017,14.084 1.016,9.049L19.632,9.049ZM18.831,14.994C19.181,14.094 19.388,13.081 19.503,11.966C19.997,11.886 20.849,11.834 21.279,12.185C21.358,12.249 21.604,12.45 21.575,13.098C21.518,14.406 19.895,14.846 18.831,14.994ZM10.988,7.103C10.988,7.103 13.827,6.504 12.281,4.22C11.721,3.229 12.494,2.875 12.494,2.875C12.494,2.875 10.667,2.933 11.438,4.504C12.056,5.768 11.873,6.485 10.988,7.103ZM7.966,6.853C7.966,6.853 10.741,6.651 9.47,4.341C8.448,2.486 8.681,1.398 9.988,0.415C9.988,0.415 5.709,1.491 8.204,4.822C9.12,6.274 7.966,6.853 7.966,6.853Z" style="fill:rgb(225,158,138);"/>
                </g>
            </g>
        </g>
    </g>
</svg>
